<svg id="Capa_1" enable-background="new 0 0 512 512" height="512" viewBox="0 0 512 512" width="512" xmlns="http://www.w3.org/2000/svg"><g><g><g><path d="m459.899 216.965h-407.798c-24.664 0-44.657 19.994-44.657 44.657v117.861c0 24.664 19.994 44.657 44.657 44.657h136.691c4.047 0 7.86 1.899 10.298 5.13l48.989 64.914c3.97 5.261 11.872 5.261 15.842 0l48.989-64.914c2.438-3.23 6.251-5.13 10.298-5.13h136.691c24.664 0 44.657-19.994 44.657-44.657v-117.861c.001-24.664-19.993-44.657-44.657-44.657z" fill="#fff0af"/></g><g><path d="m469.029 217.902c.612 2.948.937 6 .937 9.13v108.048c0 30.083-24.387 54.469-54.469 54.469h-397.987c-3.129 0-6.182-.325-9.13-.937 4.214 20.284 22.186 35.528 43.72 35.528h136.691c4.047 0 7.86 1.899 10.298 5.13l48.989 64.914c3.97 5.261 11.872 5.261 15.842 0l48.989-64.914c2.438-3.23 6.25-5.13 10.298-5.13h136.691c24.664 0 44.657-19.994 44.657-44.657v-117.861c.002-21.534-15.241-39.506-35.526-43.72z" fill="#ffe07d"/></g></g><g><path d="m206.281 249.072c-6.702-39.32-40.919-69.261-82.149-69.261h-33.19c-39.048 0-71.805 26.855-80.857 63.099-.781 3.129 1.599 6.162 4.824 6.162z" fill="#95d6a4"/></g><g><path d="m172.903 249.072h33.379c-6.702-39.32-40.919-69.261-82.149-69.261h-33.19c-.032 0-.063.002-.094.002 41.187.047 75.356 29.97 82.054 69.259z" fill="#78c2a4"/></g><g><path d="m352.063 249.072c-6.702-39.32-40.919-69.261-82.149-69.261h-33.19c-41.23 0-75.447 29.941-82.149 69.261z" fill="#dd5790"/></g><g><path d="m318.685 249.072h33.378c-6.702-39.32-40.919-69.261-82.149-69.261h-33.19c-.032 0-.063.002-.094.002 41.188.047 75.357 29.97 82.055 69.259z" fill="#da387d"/></g><g><path d="m496.903 249.072c3.225 0 5.606-3.033 4.824-6.162-9.052-36.244-41.809-63.099-80.857-63.099h-33.19c-41.23 0-75.447 29.941-82.149 69.261z" fill="#335995"/></g><g><path d="m121.206 206.659h-27.338c-8.284 0-15-6.716-15-15v-42.337h57.337v42.337c.001 8.285-6.715 15-14.999 15z" fill="#904f40"/></g><g><path d="m266.988 206.659h-27.338c-8.284 0-15-6.716-15-15v-42.337h57.337v42.337c.001 8.285-6.715 15-14.999 15z" fill="#eaac9d"/></g><g><circle cx="404.275" cy="336.298" fill="#f4fbff" r="64.968"/></g><g><path d="m442.313 283.644c7.739 10.694 12.314 23.828 12.314 38.037 0 35.881-29.087 64.968-64.968 64.968-14.21 0-27.344-4.575-38.037-12.314 11.803 16.31 30.983 26.93 52.654 26.93 35.881 0 64.968-29.087 64.968-64.968-.001-21.671-10.621-40.85-26.931-52.653z" fill="#e4f6ff"/></g><g><path d="m469.641 249.072h27.262c3.225 0 5.606-3.033 4.824-6.162-9.052-36.244-41.809-63.099-80.857-63.099h-33.19c-.031 0-.062.002-.094.002 41.188.047 75.358 29.97 82.055 69.259z" fill="#21386b"/></g><g><path d="m417.944 206.659h-27.337c-8.284 0-15-6.716-15-15v-42.337h57.337v42.337c0 8.285-6.716 15-15 15z" fill="#eaac9d"/></g><g><path d="m118.633 149.322v42.452c0 8.221-6.665 14.886-14.886 14.886h17.573c8.221 0 14.886-6.665 14.886-14.886v-42.452z" fill="#784033"/></g><g><path d="m264.415 149.322v42.452c0 8.221-6.665 14.886-14.886 14.886h17.573c8.221 0 14.886-6.665 14.886-14.886v-42.452z" fill="#df9380"/></g><g><path d="m415.371 149.322v42.452c0 8.221-6.665 14.886-14.886 14.886h17.573c8.221 0 14.886-6.665 14.886-14.886v-42.452z" fill="#df9380"/></g><g><g><circle cx="253.319" cy="35.823" fill="#aa7a63" r="21.952"/></g><g><path d="m253.319 13.87c-2.655 0-5.188.495-7.543 1.358 8.402 3.079 14.41 11.125 14.41 20.594s-6.007 17.515-14.41 20.594c2.355.863 4.888 1.358 7.543 1.358 12.124 0 21.952-9.828 21.952-21.952s-9.828-21.952-21.952-21.952z" fill="#986b54"/></g><g><path d="m281.856 167.945-3.505 3.572c-13.747 14.01-36.316 14.01-50.063 0l-3.505-3.572c-11.348-11.564-17.705-27.12-17.705-43.322v-30.717h92.484v30.717c-.001 16.202-6.358 31.757-17.706 43.322z" fill="#ffcbbe"/></g><path d="m301.268 111.119h-1.707v-28.625h-92.484v28.625h-1.707c-7.62 0-13.796 6.177-13.796 13.796v4.228c0 8.912 7.225 16.137 16.137 16.137h2.919c2.983 8.418 7.78 16.171 14.152 22.664l3.505 3.572c13.747 14.01 36.316 14.01 50.063 0l3.505-3.572c6.372-6.494 11.169-14.246 14.152-22.664h2.919c8.912 0 16.137-7.225 16.137-16.137v-4.228c.001-7.619-6.176-13.796-13.795-13.796z" fill="#ffcbbe"/><path d="m301.268 111.119h-1.707v-28.625h-20.334v42.129c0 16.202-6.357 31.757-17.705 43.322l-3.505 3.572c-4.278 4.359-9.41 7.361-14.865 9.007 12.074 3.644 25.729.643 35.199-9.007l3.505-3.572c6.372-6.494 11.169-14.246 14.152-22.664h2.919c8.912 0 16.137-7.225 16.137-16.137v-4.228c0-7.62-6.177-13.797-13.796-13.797z" fill="#eaac9d"/><g><path d="m253.319 87.89c16.627 0 32.332 3.939 46.242 10.926v-17.217c0-18.909-15.329-34.237-34.237-34.237h-24.009c-18.909 0-34.237 15.329-34.237 34.237v17.218c13.909-6.988 29.614-10.927 46.241-10.927z" fill="#aa7a63"/></g><g><g><path d="m265.324 47.361h-20.338c18.909 0 34.237 15.329 34.237 34.237v9.585c7.104 1.839 13.914 4.406 20.338 7.633v-17.217c0-18.909-15.329-34.238-34.237-34.238z" fill="#986b54"/></g></g></g><g><path d="m155.486 108.462h-1.707v-17.213h-92.484v17.213h-1.707c-7.619 0-13.796 6.177-13.796 13.796v4.228c0 8.912 7.225 16.137 16.137 16.137h2.919c2.983 8.418 7.78 16.171 14.152 22.664l3.505 3.572c13.747 14.01 36.316 14.01 50.063 0l3.505-3.572c6.372-6.494 11.169-14.246 14.152-22.664h2.919c8.912 0 16.137-7.225 16.137-16.137v-4.228c.001-7.619-6.176-13.796-13.795-13.796z" fill="#a55e4d"/><g><path d="m153.779 97.786v-23.005c0-12.606-10.219-22.825-22.825-22.825h-46.834c-12.606 0-22.825 10.219-22.825 22.825v23.006h92.484z" fill="#8b5e5e"/></g><g><path d="m153.779 97.786v-23.005c0-12.606-10.219-22.825-22.825-22.825h-46.834c-12.606 0-22.825 10.219-22.825 22.825v23.006h92.484z" fill="#7a402b"/></g><g><path d="m130.954 51.956h-20.334c12.606 0 22.825 10.219 22.825 22.825v23.006h20.334v-23.006c0-12.606-10.219-22.825-22.825-22.825z" fill="#523838"/></g><path d="m155.486 108.462h-1.707v-17.213h-20.334v30.717c0 16.202-6.357 31.757-17.705 43.322l-3.505 3.572c-4.278 4.359-9.41 7.361-14.865 9.007 12.074 3.645 25.729.643 35.199-9.007l3.505-3.572c6.372-6.494 11.169-14.246 14.152-22.664h2.919c8.912 0 16.137-7.225 16.137-16.137v-4.228c0-7.62-6.177-13.797-13.796-13.797z" fill="#904f40"/></g><g><g><path d="m450.517 97.786v-23.005c0-12.606-10.219-22.825-22.825-22.825h-46.834c-12.606 0-22.825 10.219-22.825 22.825v23.006h92.484z" fill="#8b5e5e"/></g><path d="m452.224 108.462h-1.707v-17.213h-92.484v17.213h-1.707c-7.62 0-13.796 6.177-13.796 13.796v4.228c0 8.912 7.225 16.137 16.137 16.137h2.919c2.983 8.418 7.78 16.171 14.152 22.664l3.505 3.572c13.747 14.01 36.316 14.01 50.063 0l3.505-3.572c6.372-6.494 11.169-14.246 14.152-22.664h2.919c8.912 0 16.137-7.225 16.137-16.137v-4.228c.001-7.619-6.175-13.796-13.795-13.796z" fill="#ffcbbe"/><g><path d="m450.517 97.786v-23.005c0-12.606-10.219-22.825-22.825-22.825h-46.834c-12.606 0-22.825 10.219-22.825 22.825v23.006h92.484z" fill="#ffd064"/></g><path d="m452.224 108.462h-1.707v-17.213h-20.334v30.717c0 16.202-6.357 31.757-17.705 43.322l-3.505 3.572c-4.278 4.359-9.41 7.361-14.865 9.007 12.074 3.645 25.729.643 35.198-9.007l3.505-3.572c6.372-6.494 11.169-14.246 14.152-22.664h2.919c8.912 0 16.137-7.225 16.137-16.137v-4.228c.001-7.62-6.175-13.797-13.795-13.797z" fill="#eaac9d"/><g><path d="m427.692 51.956h-20.334c12.606 0 22.825 10.219 22.825 22.825v23.006h20.334v-23.006c0-12.606-10.219-22.825-22.825-22.825z" fill="#ffc250"/></g></g><g><path d="m509.278 245.004c.091-1.289-.006-2.601-.33-3.897-8.389-33.587-35.038-59.285-68.561-66.62l-.01-6.364c4.959-5.475 8.666-11.383 11.664-18.145 11.985-1.035 21.423-11.121 21.423-23.37v-4.456c0-9.704-6.575-17.901-15.503-20.372v-27c0-16.69-13.578-30.268-30.268-30.268h-46.834c-16.689 0-30.268 13.578-30.268 30.268v26.999c-8.929 2.471-15.503 10.668-15.503 20.373v4.456c0 12.249 9.437 22.335 21.423 23.37 2.918 6.582 6.88 12.732 11.663 18.105-.001.061-.009 6.404-.009 6.404-14.822 3.245-28.273 10.071-39.393 19.555-11.361-9.69-24.829-16.376-39.34-19.555l.005-3.75c4.821-5.396 8.713-11.479 11.649-18.102 11.985-1.035 21.423-11.121 21.423-23.37v-4.456c0-9.704-6.575-17.902-15.504-20.373l.001-22.838c0-17.157-10.423-31.922-25.267-38.307.637-2.433.977-4.948.977-7.469 0-16.209-13.187-29.395-29.395-29.395-16.209 0-29.395 13.186-29.395 29.395 0 2.524.338 5.038.976 7.47-14.843 6.385-25.265 21.15-25.265 38.306v22.838c-8.929 2.471-15.503 10.669-15.503 20.373v4.456c0 12.249 9.437 22.335 21.423 23.37 2.918 6.583 6.88 12.732 11.662 18.104-.001.061-.009 3.747-.009 3.747-13.691 2.997-26.215 9.048-36.81 17.431-10.79-8.539-23.328-14.498-36.749-17.44 0 0-.008-6.335-.009-6.396 4.783-5.373 8.745-11.522 11.663-18.105 11.986-1.035 21.423-11.121 21.423-23.37v-4.456c0-9.704-6.575-17.902-15.504-20.373v-26.999c0-16.69-13.578-30.268-30.268-30.268h-46.836c-16.69 0-30.268 13.578-30.268 30.268v26.999c-8.929 2.471-15.503 10.668-15.503 20.373v4.456c0 12.249 9.437 22.335 21.423 23.37 2.918 6.583 6.881 12.732 11.663 18.105-.001.061-.009 6.403-.009 6.403-12.464 2.743-24.317 8.126-34.597 15.772-3.298 2.453-3.984 7.115-1.531 10.414 1.461 1.964 3.705 3.002 5.978 3.002 1.544 0 3.102-.479 4.436-1.471 7.709-5.733 16.474-9.942 25.714-12.403v1.974c0 12.312 10.016 22.329 22.329 22.329h27.565c12.312 0 22.329-10.016 22.329-22.329v-1.977c9.292 2.465 18.017 6.685 25.748 12.442-9.951 11-17.238 24.458-20.867 39.391h-130.384c1.821-6.164 4.422-12.071 7.754-17.6 2.122-3.52.989-8.095-2.532-10.217-3.52-2.122-8.094-.989-10.217 2.532-4.649 7.713-8.111 16.044-10.288 24.763-.362 1.449-.451 2.919-.294 4.354-1.697 5.208-2.569 10.637-2.569 16.162v117.861c0 28.728 23.372 52.1 52.1 52.1h136.692c1.702 0 3.331.811 4.357 2.17l7.427 9.841c1.463 1.939 3.691 2.96 5.947 2.96 1.561 0 3.136-.489 4.478-1.503 3.281-2.476 3.933-7.143 1.457-10.424l-7.427-9.841c-3.822-5.065-9.893-8.089-16.239-8.089h-136.692c-20.52 0-37.215-16.694-37.215-37.215v-117.86c0-1.719.122-3.423.353-5.106h481.525c.23 1.683.351 3.387.351 5.106v33.897c0 4.111 3.332 7.443 7.443 7.443s7.443-3.332 7.443-7.443v-33.897c0-5.691-.923-11.273-2.722-16.618zm-440.54-170.223c0-8.482 6.9-15.382 15.382-15.382h46.834c8.482 0 15.382 6.9 15.382 15.382v15.563h-77.598zm60.025 116.992c0 4.104-3.339 7.443-7.443 7.443h-27.566c-4.104 0-7.443-3.339-7.443-7.443v-10.631c6.38 3.691 13.641 5.667 21.225 5.667 7.584 0 14.844-1.976 21.225-5.668v10.632zm1.999-31.698-3.505 3.572c-5.238 5.338-12.242 8.277-19.72 8.277s-14.481-2.94-19.719-8.277l-3.506-3.573c-5.513-5.619-9.818-12.513-12.449-19.937-1.053-2.971-3.863-4.957-7.016-4.957h-3.042c-4.726 0-8.571-3.845-8.571-8.571v-4.456c0-3.445 2.803-6.248 6.248-6.248h1.812c4.111 0 7.443-3.332 7.443-7.443v-3.233h77.598v3.233c0 4.111 3.332 7.443 7.443 7.443h1.812c3.445 0 6.248 2.803 6.248 6.248v4.456c0 4.726-3.845 8.571-8.571 8.571h-3.042c-3.152 0-5.963 1.986-7.016 4.957-2.629 7.424-6.934 14.319-12.447 19.938zm252.288 21.067c6.38 3.691 13.641 5.668 21.225 5.668h.001c7.584 0 14.845-1.977 21.226-5.668v10.631c0 4.104-3.339 7.443-7.443 7.443h-27.566c-4.104 0-7.443-3.339-7.443-7.443zm-17.573-106.361c0-8.482 6.9-15.382 15.382-15.382h46.834c8.482 0 15.382 6.9 15.382 15.382v15.563h-77.598zm-3.891 60.399h-3.042c-4.726 0-8.571-3.845-8.571-8.571v-4.456c0-3.445 2.803-6.248 6.248-6.248h1.812c4.111 0 7.443-3.332 7.443-7.443v-3.233h77.598v3.233c0 4.111 3.332 7.443 7.443 7.443h1.811c3.445 0 6.249 2.803 6.249 6.248v4.456c0 4.726-3.845 8.571-8.572 8.571h-3.041c-3.153 0-5.963 1.986-7.016 4.957-2.631 7.424-6.936 14.319-12.449 19.938l-3.505 3.572c-5.238 5.338-12.241 8.277-19.72 8.277-7.478 0-14.481-2.94-19.718-8.277l-3.505-3.573c-5.515-5.62-9.82-12.514-12.449-19.937-1.052-2.971-3.863-4.957-7.016-4.957zm-108.267-113.866c8.001 0 14.509 6.509 14.509 14.509 0 1.428-.224 2.81-.622 4.143-.625-.028-1.251-.048-1.883-.048h-24.009c-.631 0-1.258.02-1.883.048-.397-1.333-.622-2.714-.622-4.143.001-8.001 6.509-14.509 14.51-14.509zm-38.799 60.285c0-14.774 12.02-26.794 26.794-26.794h24.009c14.774 0 26.794 12.02 26.794 26.794l-.001 5.842c-12.351-4.645-25.355-6.993-38.799-6.993-13.443 0-26.447 2.348-38.799 6.994v-5.843zm-3.89 56.238h-3.042c-4.726 0-8.571-3.845-8.571-8.571v-4.456c0-3.445 2.803-6.248 6.248-6.248h1.812c4.111 0 7.443-3.332 7.443-7.443v-7.583c12.219-5.439 25.247-8.202 38.799-8.202s26.58 2.763 38.799 8.202v7.583c0 4.111 3.332 7.443 7.443 7.443h1.812c3.445 0 6.249 2.803 6.249 6.248v4.456c0 4.726-3.846 8.571-8.572 8.571h-3.041c-3.153 0-5.963 1.986-7.016 4.957-2.631 7.424-6.936 14.319-12.449 19.937l-3.505 3.572c-5.238 5.338-12.241 8.278-19.719 8.278s-14.481-2.94-19.719-8.278l-3.505-3.572c-5.513-5.619-9.818-12.513-12.449-19.937-1.055-2.971-3.865-4.957-7.017-4.957zm63.915 45.962v7.974c0 4.104-3.339 7.443-7.443 7.443h-27.566c-4.104 0-7.443-3.339-7.443-7.443v-7.973c6.381 3.691 13.641 5.668 21.225 5.668 7.585-.001 14.846-1.977 21.227-5.669zm-57.338 5.996v1.978c0 12.312 10.016 22.329 22.329 22.329h27.566c12.312 0 22.329-10.016 22.329-22.329v-1.976c10.544 2.796 20.351 7.843 28.816 14.85-8.875 10.533-15.394 23.122-18.761 36.983h-135.56c7.459-25.336 27.685-45.059 53.281-51.835zm97.674 51.835c7.46-25.336 27.687-45.059 53.283-51.835v1.979c0 12.312 10.017 22.329 22.329 22.329h27.566c12.312 0 22.329-10.016 22.329-22.329v-1.979c25.494 6.744 45.764 26.33 53.28 51.836h-178.787z"/><path d="m504.557 322.065c-4.111 0-7.443 3.332-7.443 7.443v49.975c0 20.52-16.694 37.215-37.215 37.215h-136.691c-6.346 0-12.415 3.024-16.239 8.089l-48.99 64.914c-.646.858-1.517.986-1.978.986-.462 0-1.333-.128-1.981-.987l-22.227-29.452c-2.475-3.28-7.141-3.934-10.424-1.457-3.281 2.476-3.934 7.143-1.457 10.424l22.227 29.452c3.312 4.389 8.365 6.905 13.863 6.905s10.55-2.517 13.86-6.905l48.989-64.914c1.025-1.359 2.654-2.17 4.357-2.17h136.692c28.728 0 52.1-23.372 52.1-52.1v-49.975c0-4.11-3.332-7.443-7.443-7.443z"/><path d="m476.686 336.298c0-39.928-32.483-72.411-72.41-72.411-39.928 0-72.411 32.483-72.411 72.411s32.483 72.411 72.411 72.411c39.927-.001 72.41-32.484 72.41-72.411zm-129.936 0c0-31.72 25.806-57.525 57.525-57.525s57.525 25.805 57.525 57.525-25.805 57.525-57.525 57.525-57.525-25.806-57.525-57.525z"/><path d="m447.223 306.67c-2.906-2.906-7.618-2.907-10.527 0l-42.13 42.13-19.889-19.89c-2.907-2.906-7.619-2.906-10.527 0-2.906 2.906-2.906 7.619 0 10.526l25.153 25.153c1.454 1.454 3.358 2.18 5.263 2.18 1.904 0 3.81-.727 5.263-2.18l47.393-47.393c2.907-2.907 2.907-7.62.001-10.526z"/><path d="m247.562 307.602c-4.111 0-7.443 3.332-7.443 7.443v48.017c0 4.111 3.332 7.443 7.443 7.443s7.443-3.332 7.443-7.443v-9.041l14.924 14.398c1.444 1.394 3.307 2.087 5.166 2.087 1.95 0 3.897-.761 5.357-2.275 2.854-2.958 2.77-7.67-.189-10.524l-20.309-19.594 18.474-16.981c3.027-2.782 3.225-7.49.443-10.517-2.781-3.027-7.489-3.224-10.516-.443l-13.35 12.271v-7.397c0-4.111-3.332-7.444-7.443-7.444z"/><path d="m67.587 374.336c4.111 0 7.443-3.332 7.443-7.443v-57.349c0-4.111-3.332-7.443-7.443-7.443h-12.258c-4.111 0-7.443 3.332-7.443 7.443s3.332 7.443 7.443 7.443h4.815v49.906c0 4.111 3.332 7.443 7.443 7.443z"/><path d="m119.134 333.779c-9.072 12.963-14.486 20.051-17.394 23.858-3.68 4.819-5.527 7.237-4.276 11.304.742 2.412 2.564 4.26 5.001 5.072 1.005.335 1.859.62 12.969.62 4.405 0 10.423-.045 18.702-.149 4.111-.052 7.4-3.426 7.349-7.536-.052-4.111-3.396-7.365-7.536-7.349-5.086.064-10.458.109-15.138.125 3.085-4.153 7.184-9.79 12.518-17.411 3.734-5.336 6.173-10.394 7.25-15.036.057-.244.101-.49.132-.738l.283-2.219c.04-.313.06-.628.06-.943 0-12.196-9.922-22.117-22.117-22.117-10.545 0-19.672 7.502-21.702 17.839-.792 4.034 1.836 7.945 5.869 8.738 4.034.79 7.946-1.836 8.738-5.869.662-3.373 3.647-5.822 7.095-5.822 3.856 0 7.017 3.034 7.221 6.84l-.16 1.254c-.691 2.682-2.367 5.971-4.864 9.539z"/><path d="m158.097 324.957v26.522c0 13.248 10.778 24.027 24.027 24.027 13.248 0 24.027-10.778 24.027-24.027v-26.522c0-13.248-10.779-24.027-24.027-24.027-13.249 0-24.027 10.779-24.027 24.027zm33.168 0v26.522c0 5.04-4.101 9.141-9.141 9.141s-9.141-4.1-9.141-9.141v-26.522c0-5.04 4.1-9.141 9.141-9.141 5.04 0 9.141 4.101 9.141 9.141z"/></g></g></svg>